<?xml version="1.0" encoding="utf-8"?>
<!-- Generator: Adobe Illustrator 16.0.0, SVG Export Plug-In . SVG Version: 6.00 Build 0)  -->
<!DOCTYPE svg PUBLIC "-//W3C//DTD SVG 1.1//EN" "http://www.w3.org/Graphics/SVG/1.1/DTD/svg11.dtd">
<svg version="1.1" id="Layer_1" xmlns="http://www.w3.org/2000/svg" xmlns:xlink="http://www.w3.org/1999/xlink" x="0px" y="0px"
	 width="30px" height="30px" viewBox="0 0 30 30" enable-background="new 0 0 30 30" xml:space="preserve">
<g>
	<g>
		<path fill="#FFFFFF" d="M20.088,1.162c-0.214-0.175-0.506-0.211-0.754-0.095c-0.248,0.117-0.406,0.367-0.406,0.641v13.015
			c0,0.007,0,0.014,0,0.022v13.546c0,0.392,0.317,0.709,0.708,0.709s0.708-0.317,0.708-0.709V15.302
			c1.48-0.436,3.541-1.796,3.541-4.774C23.892,4.376,20.243,1.292,20.088,1.162z M20.344,13.792v-10.2
			c0.947,1.33,2.128,3.649,2.126,6.936C22.467,12.549,21.214,13.427,20.344,13.792z"/>
		<path fill="#FFFFFF" d="M12.565,1.001c-0.392,0-0.709,0.316-0.709,0.708v3.504h-1.453V1.708c0-0.391-0.317-0.708-0.708-0.708
			c-0.392,0-0.709,0.316-0.709,0.708v3.504H7.532V1.708c0-0.391-0.317-0.708-0.708-0.708c-0.392,0-0.708,0.316-0.708,0.708v4.213
			v2.187c0,1.731,1.235,3.179,2.87,3.508v16.674C8.985,28.683,9.302,29,9.694,29c0.39,0,0.708-0.317,0.708-0.709V11.617
			c1.634-0.329,2.871-1.777,2.871-3.508V5.921V1.708C13.273,1.317,12.955,1.001,12.565,1.001z M11.856,8.108
			c0,1.193-0.97,2.163-2.162,2.163c-1.192,0-2.162-0.969-2.162-2.163V6.63h4.324V8.108L11.856,8.108z"/>
	</g>
</g>
</svg>
